<svg width="256" height="256" viewBox="0 0 256 256" fill="none" xmlns="http://www.w3.org/2000/svg">
<g clip-path="url(#clip0_1_27)">
<path d="M196 0H60C26.8629 0 0 26.8629 0 60V196C0 229.137 26.8629 256 60 256H196C229.137 256 256 229.137 256 196V60C256 26.8629 229.137 0 196 0Z" fill="#242938"/>
<path fill-rule="evenodd" clip-rule="evenodd" d="M195.425 40H60.9648C49.3975 40 40.0159 49.3779 40.0002 60.9564V195.349C39.9778 200.929 42.1766 206.288 46.1106 210.242C50.0447 214.196 55.39 216.418 60.9648 216.418H195.425C200.995 216.411 206.333 214.185 210.261 210.232C214.189 206.279 216.384 200.924 216.362 195.349V60.9564C216.346 49.389 206.982 40.0156 195.425 40ZM116.06 167.068C116.053 168.933 115.303 170.718 113.978 172.029C112.652 173.34 110.86 174.068 108.997 174.053H79.6124C75.7692 174.038 72.6619 170.915 72.6619 167.068V79.5372C72.6619 75.6902 75.7692 72.5673 79.6124 72.5517H108.997C112.844 72.5672 115.96 75.6857 115.975 79.5372L116.06 167.068ZM183.87 126.88C183.87 128.747 183.123 130.537 181.796 131.85C180.468 133.162 178.672 133.888 176.806 133.866H147.422C143.574 133.85 140.459 130.732 140.443 126.88V79.5372C140.459 75.6857 143.574 72.5672 147.422 72.5517H176.806C180.649 72.5673 183.757 75.6902 183.757 79.5372L183.87 126.88Z" fill="url(#paint0_linear_1_27)"/>
</g>
<defs>
<linearGradient id="paint0_linear_1_27" x1="27578.9" y1="11330.8" x2="27578.9" y2="40" gradientUnits="userSpaceOnUse">
<stop stop-color="#0052CC"/>
<stop offset="1" stop-color="#2684FF"/>
</linearGradient>
<clipPath id="clip0_1_27">
<rect width="256" height="256" fill="white"/>
</clipPath>
</defs>
</svg>
